<?xml version='1.0'?>
<svg xmlns="http://www.w3.org/2000/svg" xmlns:xlink="http://www.w3.org/1999/xlink" width="600" height="112">
<defs>
  <filter id="ds" x="0" y="0">
    <feOffset in="SourceAlpha" dx="2" dy="2" />
    <feComponentTransfer><feFuncA type="linear" slope="0.2"/></feComponentTransfer>
    <feGaussianBlur result="blurOut" stdDeviation="1" />
    <feBlend in="SourceGraphic" in2="blurOut" mode="normal" />
  </filter>
  <pattern id="hatch" patternUnits="userSpaceOnUse" width="4" height="4">
    <path d="M-1,1 l2,-2 M0,4 l4,-4 M3,5 l2,-2" stroke="#000000" opacity="0.3" />
  </pattern>
</defs>
<style>
text{font-size:12px;font-family:sans-serif;fill:#ffffff;}
.axis text{font-size:10px;font-family:sans-serif;fill:#000000;}
</style>
<line x1="374.694656" x2="374.694656" y1="20" y2="48" stroke="#BABDB6" stroke-width="3"/><a xlink:title="R248Q"><circle cx="374.694656" cy="20" r="5" fill="#FF5555" /></a><line x1="410.954198" x2="410.954198" y1="20" y2="48" stroke="#BABDB6" stroke-width="3"/><a xlink:title="R273C"><circle cx="410.954198" cy="20" r="5" fill="#FF5555" /></a><line x1="376.145038" x2="376.145038" y1="20" y2="48" stroke="#BABDB6" stroke-width="3"/><a xlink:title="R249S"><circle cx="376.145038" cy="20" r="5" fill="#FF5555" /></a><a xlink:title="P53_HUMAN, Cellular tumor antigen p53 (393aa)"><rect fill="#BABDB6" x="15" y="48" width="570" height="14"/></a><a xlink:title="disorder"><rect fill="url(#hatch)" x="16.450382" y="48" width="4.351145" height="14"/></a>
<a xlink:title="disorder"><rect fill="url(#hatch)" x="51.259542" y="48" width="2.900763" height="14"/></a>
<a xlink:title="disorder"><rect fill="url(#hatch)" x="58.511450" y="48" width="1.450382" height="14"/></a>
<a xlink:title="disorder"><rect fill="url(#hatch)" x="145.534351" y="48" width="5.801527" height="14"/></a>
<a xlink:title="disorder"><rect fill="url(#hatch)" x="242.709924" y="48" width="5.801527" height="14"/></a>
<a xlink:title="disorder"><rect fill="url(#hatch)" x="267.366412" y="48" width="1.450382" height="14"/></a>
<a xlink:title="disorder"><rect fill="url(#hatch)" x="328.282443" y="48" width="1.450382" height="14"/></a>
<a xlink:title="disorder"><rect fill="url(#hatch)" x="435.610687" y="48" width="39.160305" height="14"/></a>
<a xlink:title="disorder"><rect fill="url(#hatch)" x="537.137405" y="48" width="47.862595" height="14"/></a>
<a xlink:title="low_complexity"><rect fill="#C2DDFF" x="106.374046" y="46" width="37.709924" height="18" filter="url(#ds)"/></a>
<a xlink:title="disorder"><rect fill="url(#hatch)" x="62.862595" y="48" width="42.061069" height="14"/></a>
<g transform="translate(22.251908,43)"><a xlink:href="http://pfam.xfam.org/family/PF08563" xlink:title="P53 transactivation motif"><rect fill="#2dcf00" x="0" y="0" width="34.809160" height="24" filter="url(#ds)"/></a></g>
<g transform="translate(152.786260,43)"><a xlink:href="http://pfam.xfam.org/family/PF00870" xlink:title="P53 DNA-binding domain"><rect fill="#ff5353" x="0" y="0" width="281.374046" height="24" filter="url(#ds)"/><text text-anchor="middle" x="140.687023" y="16">P53 DNA-binding domain</text></a></g>
<g transform="translate(476.221374,43)"><a xlink:href="http://pfam.xfam.org/family/PF07710" xlink:title="P53 tetramerisation motif"><rect fill="#5b5bff" x="0" y="0" width="59.465649" height="24" filter="url(#ds)"/><text text-anchor="middle" x="29.732824" y="16">P53..</text></a></g>
<g class="axis">
<line x1="15" x2="585" y1="77" y2="77" stroke="#AAAAAA" /><line x1="15" x2="15" y1="77" y2="82" stroke="#AAAAAA" /><line x1="22.251908" x2="22.251908" y1="77" y2="82" stroke="#AAAAAA" /><text text-anchor="middle" x="22.251908" y="92">5</text><line x1="57.061069" x2="57.061069" y1="77" y2="82" stroke="#AAAAAA" /><text text-anchor="middle" x="57.061069" y="92">29</text><line x1="106.374046" x2="106.374046" y1="77" y2="82" stroke="#AAAAAA" /><text text-anchor="middle" x="106.374046" y="92">63</text><line x1="152.786260" x2="152.786260" y1="77" y2="82" stroke="#AAAAAA" /><text text-anchor="middle" x="152.786260" y="92">95</text><line x1="374.694656" x2="374.694656" y1="77" y2="82" stroke="#AAAAAA" /><text text-anchor="middle" x="374.694656" y="92">248</text><line x1="410.954198" x2="410.954198" y1="77" y2="82" stroke="#AAAAAA" /><text text-anchor="middle" x="410.954198" y="92">273</text><line x1="434.160305" x2="434.160305" y1="77" y2="82" stroke="#AAAAAA" /><text text-anchor="middle" x="434.160305" y="92">289</text><line x1="476.221374" x2="476.221374" y1="77" y2="82" stroke="#AAAAAA" /><text text-anchor="middle" x="476.221374" y="92">318</text><line x1="535.687023" x2="535.687023" y1="77" y2="82" stroke="#AAAAAA" /><text text-anchor="middle" x="535.687023" y="92">359</text><line x1="585.000000" x2="585.000000" y1="77" y2="82" stroke="#AAAAAA" /><text text-anchor="middle" x="585.000000" y="92">393</text></g>
</svg>
