<?xml version='1.0'?>
<svg xmlns="http://www.w3.org/2000/svg" xmlns:xlink="http://www.w3.org/1999/xlink" width="1045" height="135">
<defs>
  <filter id="ds" x="0" y="0">
    <feOffset in="SourceAlpha" dx="2" dy="2" />
    <feComponentTransfer><feFuncA type="linear" slope="0.2"/></feComponentTransfer>
    <feGaussianBlur result="blurOut" stdDeviation="1" />
    <feBlend in="SourceGraphic" in2="blurOut" mode="normal" />
  </filter>
  <pattern id="disordered-hatch" patternUnits="userSpaceOnUse" width="4" height="4">
    <path d="M-1,1 l2,-2 M0,4 l4,-4 M3,5 l2,-2" stroke="#000000" opacity="0.3" />
  </pattern>
</defs>
<line x1="291.348601" x2="291.348601" y1="43" y2="71" stroke="#BABDB6" stroke-width="2"/><a xlink:title="Y107H"><circle cx="291.348601" cy="43" r="4" fill="#FF5555" /></a><line x1="417.900763" x2="417.900763" y1="31" y2="71" stroke="#BABDB6" stroke-width="2"/><a xlink:title="R156H"><circle cx="417.900763" cy="31" r="4" fill="#FF5555" /></a><line x1="423.066158" x2="423.066158" y1="43" y2="71" stroke="#BABDB6" stroke-width="2"/><a xlink:title="R158"><circle cx="423.066158" cy="43" r="4" fill="#0000ff" /></a><line x1="492.798982" x2="492.798982" y1="19" y2="71" stroke="#BABDB6" stroke-width="2"/><a xlink:title="S185"><circle cx="492.798982" cy="19" r="4" fill="#0000ff" /></a><line x1="492.798982" x2="492.798982" y1="31" y2="71" stroke="#BABDB6" stroke-width="2"/><a xlink:title="S185N"><circle cx="492.798982" cy="31" r="4" fill="#FF5555" /></a><line x1="495.381679" x2="495.381679" y1="43" y2="71" stroke="#BABDB6" stroke-width="2"/><a xlink:title="D186E"><circle cx="495.381679" cy="43" r="4" fill="#FF5555" /></a><line x1="516.043257" x2="516.043257" y1="43" y2="71" stroke="#BABDB6" stroke-width="2"/><a xlink:title="L194"><circle cx="516.043257" cy="43" r="4" fill="#0000ff" /></a><line x1="547.035623" x2="547.035623" y1="43" y2="71" stroke="#BABDB6" stroke-width="2"/><a xlink:title="L206"><circle cx="547.035623" cy="43" r="4" fill="#0000ff" /></a><line x1="565.114504" x2="565.114504" y1="43" y2="71" stroke="#BABDB6" stroke-width="2"/><a xlink:title="R213"><circle cx="565.114504" cy="43" r="4" fill="#0000ff" /></a><line x1="572.862595" x2="572.862595" y1="43" y2="71" stroke="#BABDB6" stroke-width="2"/><a xlink:title="V216"><circle cx="572.862595" cy="43" r="4" fill="#0000ff" /></a><line x1="588.358779" x2="588.358779" y1="19" y2="71" stroke="#BABDB6" stroke-width="2"/><a xlink:title="P222"><circle cx="588.358779" cy="19" r="4" fill="#0000ff" /></a><line x1="588.358779" x2="588.358779" y1="31" y2="71" stroke="#BABDB6" stroke-width="2"/><a xlink:title="P222L"><circle cx="588.358779" cy="31" r="4" fill="#FF5555" /></a><line x1="590.941476" x2="590.941476" y1="43" y2="71" stroke="#BABDB6" stroke-width="2"/><a xlink:title="P223H"><circle cx="590.941476" cy="43" r="4" fill="#FF5555" /></a><line x1="621.933842" x2="621.933842" y1="43" y2="71" stroke="#BABDB6" stroke-width="2"/><a xlink:title="N235S"><circle cx="621.933842" cy="43" r="4" fill="#FF5555" /></a><line x1="640.012723" x2="640.012723" y1="43" y2="71" stroke="#BABDB6" stroke-width="2"/><a xlink:title="C242"><circle cx="640.012723" cy="43" r="4" fill="#0000ff" /></a><line x1="647.760814" x2="647.760814" y1="43" y2="71" stroke="#BABDB6" stroke-width="2"/><a xlink:title="G245S"><circle cx="647.760814" cy="43" r="4" fill="#FF5555" /></a><line x1="655.508906" x2="655.508906" y1="43" y2="71" stroke="#BABDB6" stroke-width="2"/><a xlink:title="R248Q"><circle cx="655.508906" cy="43" r="4" fill="#FF5555" /></a><line x1="743.320611" x2="743.320611" y1="19" y2="71" stroke="#BABDB6" stroke-width="2"/><a xlink:title="R282W"><circle cx="743.320611" cy="19" r="4" fill="#FF5555" /></a><line x1="745.903308" x2="745.903308" y1="31" y2="71" stroke="#BABDB6" stroke-width="2"/><a xlink:title="R283H"><circle cx="745.903308" cy="31" r="4" fill="#FF5555" /></a><line x1="745.903308" x2="745.903308" y1="43" y2="71" stroke="#BABDB6" stroke-width="2"/><a xlink:title="R283C"><circle cx="745.903308" cy="43" r="4" fill="#FF5555" /></a><line x1="880.203562" x2="880.203562" y1="43" y2="71" stroke="#BABDB6" stroke-width="2"/><a xlink:title="R335C"><circle cx="880.203562" cy="43" r="4" fill="#FF5555" /></a><line x1="887.951654" x2="887.951654" y1="43" y2="71" stroke="#BABDB6" stroke-width="2"/><a xlink:title="F338"><circle cx="887.951654" cy="43" r="4" fill="#0000ff" /></a><line x1="898.282443" x2="898.282443" y1="31" y2="71" stroke="#BABDB6" stroke-width="2"/><a xlink:title="R342Q"><circle cx="898.282443" cy="31" r="4" fill="#FF5555" /></a><line x1="900.865140" x2="900.865140" y1="43" y2="71" stroke="#BABDB6" stroke-width="2"/><a xlink:title="E343Q"><circle cx="900.865140" cy="43" r="4" fill="#FF5555" /></a><a xlink:title="P53_HUMAN, Cellular tumor antigen p53 (393aa)"><rect fill="#BABDB6" x="15" y="71" width="1015" height="14"/></a><a xlink:title="disorder"><rect fill="url(#disordered-hatch)" x="17.582697" y="71" width="7.748092" height="14"/></a>
<a xlink:title="disorder"><rect fill="url(#disordered-hatch)" x="79.567430" y="71" width="5.165394" height="14"/></a>
<a xlink:title="disorder"><rect fill="url(#disordered-hatch)" x="92.480916" y="71" width="2.582697" height="14"/></a>
<a xlink:title="disorder"><rect fill="url(#disordered-hatch)" x="247.442748" y="71" width="10.330789" height="14"/></a>
<a xlink:title="disorder"><rect fill="url(#disordered-hatch)" x="420.483461" y="71" width="10.330789" height="14"/></a>
<a xlink:title="disorder"><rect fill="url(#disordered-hatch)" x="464.389313" y="71" width="2.582697" height="14"/></a>
<a xlink:title="disorder"><rect fill="url(#disordered-hatch)" x="572.862595" y="71" width="2.582697" height="14"/></a>
<a xlink:title="disorder"><rect fill="url(#disordered-hatch)" x="763.982188" y="71" width="69.732824" height="14"/></a>
<a xlink:title="disorder"><rect fill="url(#disordered-hatch)" x="944.770992" y="71" width="85.229008" height="14"/></a>
<a xlink:title="low_complexity"><rect fill="#C2DDFF" x="177.709924" y="69" width="67.150127" height="18" filter="url(#ds)"/></a>
<a xlink:title="disorder"><rect fill="url(#disordered-hatch)" x="100.229008" y="71" width="74.898219" height="14"/></a>
<g transform="translate(27.913486,66)"><a xlink:href="http://pfam.xfam.org/family/PF08563" xlink:title="P53 transactivation motif"><rect fill="#2dcf00" x="0" y="0" width="61.984733" height="24" filter="url(#ds)"/><text style="font-size:12px;font-family:sans-serif;fill:#ffffff;" text-anchor="middle" x="30.992366" y="16">P53_TAD</text></a></g>
<g transform="translate(260.356234,66)"><a xlink:href="http://pfam.xfam.org/family/PF00870" xlink:title="P53 DNA-binding domain"><rect fill="#ff5353" x="0" y="0" width="501.043257" height="24" filter="url(#ds)"/><text style="font-size:12px;font-family:sans-serif;fill:#ffffff;" text-anchor="middle" x="250.521628" y="16">P53 DNA-binding domain</text></a></g>
<g transform="translate(836.297710,66)"><a xlink:href="http://pfam.xfam.org/family/PF07710" xlink:title="P53 tetramerisation motif"><rect fill="#5b5bff" x="0" y="0" width="105.890585" height="24" filter="url(#ds)"/><text style="font-size:12px;font-family:sans-serif;fill:#ffffff;" text-anchor="middle" x="52.945293" y="16">P53_tetramer</text></a></g>
<g class="axis">
<line x1="15" x2="1030" y1="100" y2="100" stroke="#AAAAAA" /><line x1="15" x2="15" y1="100" y2="105" stroke="#AAAAAA" /><line x1="27.913486" x2="27.913486" y1="100" y2="105" stroke="#AAAAAA" /><text style="font-size:10px;font-family:sans-serif;fill:#000000;" text-anchor="middle" x="27.913486" y="115">5</text><line x1="89.898219" x2="89.898219" y1="100" y2="105" stroke="#AAAAAA" /><text style="font-size:10px;font-family:sans-serif;fill:#000000;" text-anchor="middle" x="89.898219" y="115">29</text><line x1="177.709924" x2="177.709924" y1="100" y2="105" stroke="#AAAAAA" /><text style="font-size:10px;font-family:sans-serif;fill:#000000;" text-anchor="middle" x="177.709924" y="115">63</text><line x1="260.356234" x2="260.356234" y1="100" y2="105" stroke="#AAAAAA" /><text style="font-size:10px;font-family:sans-serif;fill:#000000;" text-anchor="middle" x="260.356234" y="115">95</text><line x1="291.348601" x2="291.348601" y1="100" y2="105" stroke="#AAAAAA" /><text style="font-size:10px;font-family:sans-serif;fill:#000000;" text-anchor="middle" x="291.348601" y="115">107</text><line x1="417.900763" x2="417.900763" y1="100" y2="105" stroke="#AAAAAA" /><text style="font-size:10px;font-family:sans-serif;fill:#000000;" text-anchor="middle" x="417.900763" y="115">156</text><line x1="492.798982" x2="492.798982" y1="100" y2="105" stroke="#AAAAAA" /><text style="font-size:10px;font-family:sans-serif;fill:#000000;" text-anchor="middle" x="492.798982" y="115">185</text><line x1="516.043257" x2="516.043257" y1="100" y2="105" stroke="#AAAAAA" /><text style="font-size:10px;font-family:sans-serif;fill:#000000;" text-anchor="middle" x="516.043257" y="115">194</text><line x1="547.035623" x2="547.035623" y1="100" y2="105" stroke="#AAAAAA" /><text style="font-size:10px;font-family:sans-serif;fill:#000000;" text-anchor="middle" x="547.035623" y="115">206</text><line x1="565.114504" x2="565.114504" y1="100" y2="105" stroke="#AAAAAA" /><text style="font-size:10px;font-family:sans-serif;fill:#000000;" text-anchor="middle" x="565.114504" y="115">213</text><line x1="588.358779" x2="588.358779" y1="100" y2="105" stroke="#AAAAAA" /><text style="font-size:10px;font-family:sans-serif;fill:#000000;" text-anchor="middle" x="588.358779" y="115">222</text><line x1="621.933842" x2="621.933842" y1="100" y2="105" stroke="#AAAAAA" /><text style="font-size:10px;font-family:sans-serif;fill:#000000;" text-anchor="middle" x="621.933842" y="115">235</text><line x1="640.012723" x2="640.012723" y1="100" y2="105" stroke="#AAAAAA" /><text style="font-size:10px;font-family:sans-serif;fill:#000000;" text-anchor="middle" x="640.012723" y="115">242</text><line x1="743.320611" x2="743.320611" y1="100" y2="105" stroke="#AAAAAA" /><text style="font-size:10px;font-family:sans-serif;fill:#000000;" text-anchor="middle" x="743.320611" y="115">282</text><line x1="761.399491" x2="761.399491" y1="100" y2="105" stroke="#AAAAAA" /><text style="font-size:10px;font-family:sans-serif;fill:#000000;" text-anchor="middle" x="761.399491" y="115">289</text><line x1="836.297710" x2="836.297710" y1="100" y2="105" stroke="#AAAAAA" /><text style="font-size:10px;font-family:sans-serif;fill:#000000;" text-anchor="middle" x="836.297710" y="115">318</text><line x1="880.203562" x2="880.203562" y1="100" y2="105" stroke="#AAAAAA" /><text style="font-size:10px;font-family:sans-serif;fill:#000000;" text-anchor="middle" x="880.203562" y="115">335</text><line x1="898.282443" x2="898.282443" y1="100" y2="105" stroke="#AAAAAA" /><text style="font-size:10px;font-family:sans-serif;fill:#000000;" text-anchor="middle" x="898.282443" y="115">342</text><line x1="942.188295" x2="942.188295" y1="100" y2="105" stroke="#AAAAAA" /><text style="font-size:10px;font-family:sans-serif;fill:#000000;" text-anchor="middle" x="942.188295" y="115">359</text><line x1="1030.000000" x2="1030.000000" y1="100" y2="105" stroke="#AAAAAA" /><text style="font-size:10px;font-family:sans-serif;fill:#000000;" text-anchor="middle" x="1030.000000" y="115">393</text></g>
</svg>
