<?xml version='1.0'?>
<svg xmlns="http://www.w3.org/2000/svg" xmlns:xlink="http://www.w3.org/1999/xlink" width="1012.500000" height="111.000000">
<defs>
  <filter id="ds" x="0" y="0">
    <feOffset in="SourceAlpha" dx="2" dy="2" />
    <feComponentTransfer><feFuncA type="linear" slope="0.2"/></feComponentTransfer>
    <feGaussianBlur result="blurOut" stdDeviation="1" />
    <feBlend in="SourceGraphic" in2="blurOut" mode="normal" />
  </filter>
  <pattern id="disordered-hatch" patternUnits="userSpaceOnUse" width="4" height="4">
    <path d="M-1,1 l2,-2 M0,4 l4,-4 M3,5 l2,-2" stroke="#000000" opacity="0.3" />
  </pattern>
</defs>
<line x1="327.500000" x2="327.500000" y1="19.000000" y2="47.000000" stroke="#BABDB6" stroke-width="2"/><a xlink:title="T125"><circle cx="327.500000" cy="19.000000" r="4.000000" fill="#0000ff" /></a><line x1="452.500000" x2="452.500000" y1="19.000000" y2="47.000000" stroke="#BABDB6" stroke-width="2"/><a xlink:title="R175H"><circle cx="452.500000" cy="19.000000" r="4.000000" fill="#ff0000" /></a><line x1="635.000000" x2="635.000000" y1="19.000000" y2="47.000000" stroke="#BABDB6" stroke-width="2"/><a xlink:title="R248Q"><circle cx="635.000000" cy="19.000000" r="4.000000" fill="#ff0000" /></a><line x1="697.500000" x2="697.500000" y1="19.000000" y2="47.000000" stroke="#BABDB6" stroke-width="2"/><a xlink:title="R273C"><circle cx="697.500000" cy="19.000000" r="4.000000" fill="#ff0000" /></a><a xlink:title=",  (393aa)"><rect fill="#BABDB6" x="15.000000" y="47.000000" width="982.500000" height="14.000000"/></a><g transform="translate(30.000000,42.000000)"><a xlink:href="https://www.ebi.ac.uk/interpro/entry/pfam/PF08563" xlink:title="P53 transactivation motif"><rect fill="#2DCF00" x="0" y="0" width="60.000000" height="24.000000" filter="url(#ds)"/><text style="font-size:12px;font-family:OpenSans;fill:#ffffff;" text-anchor="middle" x="30.000000" y="16.000000">P53_TAD</text></a></g>
<g transform="translate(102.500000,42.000000)"><a xlink:href="https://www.ebi.ac.uk/interpro/entry/pfam/PF18521" xlink:title="Transactivation domain 2"><rect fill="#FF5353" x="0" y="0" width="60.000000" height="24.000000" filter="url(#ds)"/><text style="font-size:12px;font-family:OpenSans;fill:#ffffff;" text-anchor="middle" x="30.000000" y="16.000000">TAD2</text></a></g>
<g transform="translate(265.000000,42.000000)"><a xlink:href="https://www.ebi.ac.uk/interpro/entry/pfam/PF00870" xlink:title="P53 DNA-binding domain"><rect fill="#5B5BFF" x="0" y="0" width="470.000000" height="24.000000" filter="url(#ds)"/><text style="font-size:12px;font-family:OpenSans;fill:#ffffff;" text-anchor="middle" x="235.000000" y="16.000000">P53 DNA-binding domain</text></a></g>
<g transform="translate(812.500000,42.000000)"><a xlink:href="https://www.ebi.ac.uk/interpro/entry/pfam/PF07710" xlink:title="P53 tetramerisation motif"><rect fill="#EBD61D" x="0" y="0" width="95.000000" height="24.000000" filter="url(#ds)"/><text style="font-size:12px;font-family:OpenSans;fill:#ffffff;" text-anchor="middle" x="47.500000" y="16.000000">P53_tetramer</text></a></g>
<g class="axis">
<line x1="15.000000" x2="997.500000" y1="76.000000" y2="76.000000" stroke="#AAAAAA" /><line x1="15.000000" x2="15.000000" y1="76.000000" y2="81.000000" stroke="#AAAAAA" /><line x1="30.000000" x2="30.000000" y1="76.000000" y2="81.000000" stroke="#AAAAAA" /><text style="font-size:10px;font-family:OpenSans;fill:#000000;" text-anchor="middle" x="30.000000" y="91.000000">6</text><line x1="90.000000" x2="90.000000" y1="76.000000" y2="81.000000" stroke="#AAAAAA" /><text style="font-size:10px;font-family:OpenSans;fill:#000000;" text-anchor="middle" x="90.000000" y="91.000000">30</text><line x1="162.500000" x2="162.500000" y1="76.000000" y2="81.000000" stroke="#AAAAAA" /><text style="font-size:10px;font-family:OpenSans;fill:#000000;" text-anchor="middle" x="162.500000" y="91.000000">59</text><line x1="265.000000" x2="265.000000" y1="76.000000" y2="81.000000" stroke="#AAAAAA" /><text style="font-size:10px;font-family:OpenSans;fill:#000000;" text-anchor="middle" x="265.000000" y="91.000000">100</text><line x1="327.500000" x2="327.500000" y1="76.000000" y2="81.000000" stroke="#AAAAAA" /><text style="font-size:10px;font-family:OpenSans;fill:#000000;" text-anchor="middle" x="327.500000" y="91.000000">125</text><line x1="452.500000" x2="452.500000" y1="76.000000" y2="81.000000" stroke="#AAAAAA" /><text style="font-size:10px;font-family:OpenSans;fill:#000000;" text-anchor="middle" x="452.500000" y="91.000000">175</text><line x1="635.000000" x2="635.000000" y1="76.000000" y2="81.000000" stroke="#AAAAAA" /><text style="font-size:10px;font-family:OpenSans;fill:#000000;" text-anchor="middle" x="635.000000" y="91.000000">248</text><line x1="697.500000" x2="697.500000" y1="76.000000" y2="81.000000" stroke="#AAAAAA" /><text style="font-size:10px;font-family:OpenSans;fill:#000000;" text-anchor="middle" x="697.500000" y="91.000000">273</text><line x1="735.000000" x2="735.000000" y1="76.000000" y2="81.000000" stroke="#AAAAAA" /><text style="font-size:10px;font-family:OpenSans;fill:#000000;" text-anchor="middle" x="735.000000" y="91.000000">288</text><line x1="812.500000" x2="812.500000" y1="76.000000" y2="81.000000" stroke="#AAAAAA" /><text style="font-size:10px;font-family:OpenSans;fill:#000000;" text-anchor="middle" x="812.500000" y="91.000000">319</text><line x1="907.500000" x2="907.500000" y1="76.000000" y2="81.000000" stroke="#AAAAAA" /><text style="font-size:10px;font-family:OpenSans;fill:#000000;" text-anchor="middle" x="907.500000" y="91.000000">357</text><line x1="997.500000" x2="997.500000" y1="76.000000" y2="81.000000" stroke="#AAAAAA" /><text style="font-size:10px;font-family:OpenSans;fill:#000000;" text-anchor="middle" x="997.500000" y="91.000000">393</text></g>
</svg>
