<?xml version='1.0'?>
<svg xmlns="http://www.w3.org/2000/svg" xmlns:xlink="http://www.w3.org/1999/xlink" width="1045" height="123">
<defs>
  <filter id="ds" x="0" y="0">
    <feOffset in="SourceAlpha" dx="2" dy="2" />
    <feComponentTransfer><feFuncA type="linear" slope="0.2"/></feComponentTransfer>
    <feGaussianBlur result="blurOut" stdDeviation="1" />
    <feBlend in="SourceGraphic" in2="blurOut" mode="normal" />
  </filter>
  <pattern id="disordered-hatch" patternUnits="userSpaceOnUse" width="4" height="4">
    <path d="M-1,1 l2,-2 M0,4 l4,-4 M3,5 l2,-2" stroke="#000000" opacity="0.3" />
  </pattern>
</defs>
<line x1="611.603053" x2="611.603053" y1="19" y2="59" stroke="#BABDB6" stroke-width="2"/><a xlink:title="E231W"><circle cx="611.603053" cy="19" r="4" fill="#FF5555" /></a><line x1="614.185751" x2="614.185751" y1="31" y2="59" stroke="#BABDB6" stroke-width="2"/><a xlink:title="E232"><circle cx="614.185751" cy="31" r="4" fill="#0000ff" /></a><a xlink:title="P53_HUMAN, Cellular tumor antigen p53 (393aa)"><rect fill="#BABDB6" x="15" y="59" width="1015" height="14"/></a><a xlink:title="disorder"><rect fill="url(#disordered-hatch)" x="17.582697" y="59" width="7.748092" height="14"/></a>
<a xlink:title="disorder"><rect fill="url(#disordered-hatch)" x="79.567430" y="59" width="5.165394" height="14"/></a>
<a xlink:title="disorder"><rect fill="url(#disordered-hatch)" x="92.480916" y="59" width="2.582697" height="14"/></a>
<a xlink:title="disorder"><rect fill="url(#disordered-hatch)" x="247.442748" y="59" width="10.330789" height="14"/></a>
<a xlink:title="disorder"><rect fill="url(#disordered-hatch)" x="420.483461" y="59" width="10.330789" height="14"/></a>
<a xlink:title="disorder"><rect fill="url(#disordered-hatch)" x="464.389313" y="59" width="2.582697" height="14"/></a>
<a xlink:title="disorder"><rect fill="url(#disordered-hatch)" x="572.862595" y="59" width="2.582697" height="14"/></a>
<a xlink:title="disorder"><rect fill="url(#disordered-hatch)" x="763.982188" y="59" width="69.732824" height="14"/></a>
<a xlink:title="disorder"><rect fill="url(#disordered-hatch)" x="944.770992" y="59" width="85.229008" height="14"/></a>
<a xlink:title="low_complexity"><rect fill="#C2DDFF" x="177.709924" y="57" width="67.150127" height="18" filter="url(#ds)"/></a>
<a xlink:title="disorder"><rect fill="url(#disordered-hatch)" x="100.229008" y="59" width="74.898219" height="14"/></a>
<g transform="translate(27.913486,54)"><a xlink:href="http://pfam.xfam.org/family/PF08563" xlink:title="P53 transactivation motif"><rect fill="#2dcf00" x="0" y="0" width="61.984733" height="24" filter="url(#ds)"/><text style="font-size:12px;font-family:sans-serif;fill:#ffffff;" text-anchor="middle" x="30.992366" y="16">P53_TAD</text></a></g>
<g transform="translate(260.356234,54)"><a xlink:href="http://pfam.xfam.org/family/PF00870" xlink:title="P53 DNA-binding domain"><rect fill="#ff5353" x="0" y="0" width="501.043257" height="24" filter="url(#ds)"/><text style="font-size:12px;font-family:sans-serif;fill:#ffffff;" text-anchor="middle" x="250.521628" y="16">P53 DNA-binding domain</text></a></g>
<g transform="translate(836.297710,54)"><a xlink:href="http://pfam.xfam.org/family/PF07710" xlink:title="P53 tetramerisation motif"><rect fill="#5b5bff" x="0" y="0" width="105.890585" height="24" filter="url(#ds)"/><text style="font-size:12px;font-family:sans-serif;fill:#ffffff;" text-anchor="middle" x="52.945293" y="16">P53_tetramer</text></a></g>
<g class="axis">
<line x1="15" x2="1030" y1="88" y2="88" stroke="#AAAAAA" /><line x1="15" x2="15" y1="88" y2="93" stroke="#AAAAAA" /><line x1="27.913486" x2="27.913486" y1="88" y2="93" stroke="#AAAAAA" /><text style="font-size:10px;font-family:sans-serif;fill:#000000;" text-anchor="middle" x="27.913486" y="103">5</text><line x1="89.898219" x2="89.898219" y1="88" y2="93" stroke="#AAAAAA" /><text style="font-size:10px;font-family:sans-serif;fill:#000000;" text-anchor="middle" x="89.898219" y="103">29</text><line x1="177.709924" x2="177.709924" y1="88" y2="93" stroke="#AAAAAA" /><text style="font-size:10px;font-family:sans-serif;fill:#000000;" text-anchor="middle" x="177.709924" y="103">63</text><line x1="260.356234" x2="260.356234" y1="88" y2="93" stroke="#AAAAAA" /><text style="font-size:10px;font-family:sans-serif;fill:#000000;" text-anchor="middle" x="260.356234" y="103">95</text><line x1="611.603053" x2="611.603053" y1="88" y2="93" stroke="#AAAAAA" /><text style="font-size:10px;font-family:sans-serif;fill:#000000;" text-anchor="middle" x="611.603053" y="103">231</text><line x1="761.399491" x2="761.399491" y1="88" y2="93" stroke="#AAAAAA" /><text style="font-size:10px;font-family:sans-serif;fill:#000000;" text-anchor="middle" x="761.399491" y="103">289</text><line x1="836.297710" x2="836.297710" y1="88" y2="93" stroke="#AAAAAA" /><text style="font-size:10px;font-family:sans-serif;fill:#000000;" text-anchor="middle" x="836.297710" y="103">318</text><line x1="942.188295" x2="942.188295" y1="88" y2="93" stroke="#AAAAAA" /><text style="font-size:10px;font-family:sans-serif;fill:#000000;" text-anchor="middle" x="942.188295" y="103">359</text><line x1="1030.000000" x2="1030.000000" y1="88" y2="93" stroke="#AAAAAA" /><text style="font-size:10px;font-family:sans-serif;fill:#000000;" text-anchor="middle" x="1030.000000" y="103">393</text></g>
</svg>
