<?xml version='1.0'?>
<svg xmlns="http://www.w3.org/2000/svg" xmlns:xlink="http://www.w3.org/1999/xlink" width="888.000000" height="111.000000">
<defs>
  <filter id="ds" x="0" y="0">
    <feOffset in="SourceAlpha" dx="2" dy="2" />
    <feComponentTransfer><feFuncA type="linear" slope="0.2"/></feComponentTransfer>
    <feGaussianBlur result="blurOut" stdDeviation="1" />
    <feBlend in="SourceGraphic" in2="blurOut" mode="normal" />
  </filter>
  <pattern id="disordered-hatch" patternUnits="userSpaceOnUse" width="4" height="4">
    <path d="M-1,1 l2,-2 M0,4 l4,-4 M3,5 l2,-2" stroke="#000000" opacity="0.3" />
  </pattern>
</defs>
<line x1="287.900763" x2="287.900763" y1="19.000000" y2="47.000000" stroke="#BABDB6" stroke-width="2"/><a xlink:title="T125"><circle cx="287.900763" cy="19.000000" r="4.000000" fill="#0000ff" /></a><line x1="397.061069" x2="397.061069" y1="19.000000" y2="47.000000" stroke="#BABDB6" stroke-width="2"/><a xlink:title="R175H"><circle cx="397.061069" cy="19.000000" r="4.000000" fill="#ff0000" /></a><line x1="556.435115" x2="556.435115" y1="19.000000" y2="47.000000" stroke="#BABDB6" stroke-width="2"/><a xlink:title="R248Q"><circle cx="556.435115" cy="19.000000" r="4.000000" fill="#ff0000" /></a><line x1="611.015267" x2="611.015267" y1="19.000000" y2="47.000000" stroke="#BABDB6" stroke-width="2"/><a xlink:title="R273C"><circle cx="611.015267" cy="19.000000" r="4.000000" fill="#ff0000" /></a><a xlink:title="P53_HUMAN, Cellular tumor antigen p53 (393aa)"><rect fill="#BABDB6" x="15.000000" y="47.000000" width="858.000000" height="14.000000"/></a><g transform="translate(25.916031,42.000000)"><a xlink:href="http://pfam-legacy.xfam.org/family/PF08563" xlink:title="P53 transactivation motif"><rect fill="#2dcf00" x="0" y="0" width="52.396947" height="24.000000" filter="url(#ds)"/></a></g>
<g transform="translate(222.404580,42.000000)"><a xlink:href="http://pfam-legacy.xfam.org/family/PF00870" xlink:title="P53 DNA-binding domain"><rect fill="#ff5353" x="0" y="0" width="423.541985" height="24.000000" filter="url(#ds)"/><text style="font-size:12px;font-family:Arial;fill:#ffffff;" text-anchor="middle" x="211.770992" y="16.000000">P53 DNA-binding domain</text></a></g>
<g transform="translate(711.442748,42.000000)"><a xlink:href="http://pfam-legacy.xfam.org/family/PF07710" xlink:title="P53 tetramerisation motif"><rect fill="#5b5bff" x="0" y="0" width="85.145038" height="24.000000" filter="url(#ds)"/><text style="font-size:12px;font-family:Arial;fill:#ffffff;" text-anchor="middle" x="42.572519" y="16.000000">P53_tetramer</text></a></g>
<g class="axis">
<line x1="15.000000" x2="873.000000" y1="76.000000" y2="76.000000" stroke="#AAAAAA" /><line x1="15.000000" x2="15.000000" y1="76.000000" y2="81.000000" stroke="#AAAAAA" /><line x1="25.916031" x2="25.916031" y1="76.000000" y2="81.000000" stroke="#AAAAAA" /><text style="font-size:10px;font-family:Arial;fill:#000000;" text-anchor="middle" x="25.916031" y="91.000000">5</text><line x1="78.312977" x2="78.312977" y1="76.000000" y2="81.000000" stroke="#AAAAAA" /><text style="font-size:10px;font-family:Arial;fill:#000000;" text-anchor="middle" x="78.312977" y="91.000000">29</text><line x1="222.404580" x2="222.404580" y1="76.000000" y2="81.000000" stroke="#AAAAAA" /><text style="font-size:10px;font-family:Arial;fill:#000000;" text-anchor="middle" x="222.404580" y="91.000000">95</text><line x1="287.900763" x2="287.900763" y1="76.000000" y2="81.000000" stroke="#AAAAAA" /><text style="font-size:10px;font-family:Arial;fill:#000000;" text-anchor="middle" x="287.900763" y="91.000000">125</text><line x1="397.061069" x2="397.061069" y1="76.000000" y2="81.000000" stroke="#AAAAAA" /><text style="font-size:10px;font-family:Arial;fill:#000000;" text-anchor="middle" x="397.061069" y="91.000000">175</text><line x1="556.435115" x2="556.435115" y1="76.000000" y2="81.000000" stroke="#AAAAAA" /><text style="font-size:10px;font-family:Arial;fill:#000000;" text-anchor="middle" x="556.435115" y="91.000000">248</text><line x1="611.015267" x2="611.015267" y1="76.000000" y2="81.000000" stroke="#AAAAAA" /><text style="font-size:10px;font-family:Arial;fill:#000000;" text-anchor="middle" x="611.015267" y="91.000000">273</text><line x1="645.946565" x2="645.946565" y1="76.000000" y2="81.000000" stroke="#AAAAAA" /><text style="font-size:10px;font-family:Arial;fill:#000000;" text-anchor="middle" x="645.946565" y="91.000000">289</text><line x1="711.442748" x2="711.442748" y1="76.000000" y2="81.000000" stroke="#AAAAAA" /><text style="font-size:10px;font-family:Arial;fill:#000000;" text-anchor="middle" x="711.442748" y="91.000000">319</text><line x1="796.587786" x2="796.587786" y1="76.000000" y2="81.000000" stroke="#AAAAAA" /><text style="font-size:10px;font-family:Arial;fill:#000000;" text-anchor="middle" x="796.587786" y="91.000000">358</text><line x1="873.000000" x2="873.000000" y1="76.000000" y2="81.000000" stroke="#AAAAAA" /><text style="font-size:10px;font-family:Arial;fill:#000000;" text-anchor="middle" x="873.000000" y="91.000000">393</text></g>
</svg>
