<?xml version='1.0'?>
<svg xmlns="http://www.w3.org/2000/svg" xmlns:xlink="http://www.w3.org/1999/xlink" width="700" height="123">
<defs>
  <filter id="ds" x="0" y="0">
    <feOffset in="SourceAlpha" dx="2" dy="2" />
    <feComponentTransfer><feFuncA type="linear" slope="0.2"/></feComponentTransfer>
    <feGaussianBlur result="blurOut" stdDeviation="1" />
    <feBlend in="SourceGraphic" in2="blurOut" mode="normal" />
  </filter>
  <pattern id="hatch" patternUnits="userSpaceOnUse" width="4" height="4">
    <path d="M-1,1 l2,-2 M0,4 l4,-4 M3,5 l2,-2" stroke="#000000" opacity="0.3" />
  </pattern>
</defs>
<style>
text{font-size:12px;font-family:sans-serif;fill:#ffffff;}
.axis text{font-size:10px;font-family:sans-serif;fill:#000000;}
</style>
<line x1="437.798982" x2="437.798982" y1="19" y2="59" stroke="#BABDB6" stroke-width="2"/><a xlink:title="R248Q"><circle cx="437.798982" cy="19" r="4" fill="#FF5555" /></a><line x1="439.503817" x2="439.503817" y1="31" y2="59" stroke="#BABDB6" stroke-width="2"/><a xlink:title="R249S"><circle cx="439.503817" cy="31" r="4" fill="#FF5555" /></a><line x1="480.419847" x2="480.419847" y1="31" y2="59" stroke="#BABDB6" stroke-width="2"/><a xlink:title="R273C"><circle cx="480.419847" cy="31" r="4" fill="#FF5555" /></a><a xlink:title="P53_HUMAN, Cellular tumor antigen p53 (393aa)"><rect fill="#BABDB6" x="15" y="59" width="670" height="14"/></a><a xlink:title="disorder"><rect fill="url(#hatch)" x="16.704835" y="59" width="5.114504" height="14"/></a>
<a xlink:title="disorder"><rect fill="url(#hatch)" x="57.620865" y="59" width="3.409669" height="14"/></a>
<a xlink:title="disorder"><rect fill="url(#hatch)" x="66.145038" y="59" width="1.704835" height="14"/></a>
<a xlink:title="disorder"><rect fill="url(#hatch)" x="168.435115" y="59" width="6.819338" height="14"/></a>
<a xlink:title="disorder"><rect fill="url(#hatch)" x="282.659033" y="59" width="6.819338" height="14"/></a>
<a xlink:title="disorder"><rect fill="url(#hatch)" x="311.641221" y="59" width="1.704835" height="14"/></a>
<a xlink:title="disorder"><rect fill="url(#hatch)" x="383.244275" y="59" width="1.704835" height="14"/></a>
<a xlink:title="disorder"><rect fill="url(#hatch)" x="509.402036" y="59" width="46.030534" height="14"/></a>
<a xlink:title="disorder"><rect fill="url(#hatch)" x="628.740458" y="59" width="56.259542" height="14"/></a>
<a xlink:title="low_complexity"><rect fill="#C2DDFF" x="122.404580" y="57" width="44.325700" height="18" filter="url(#ds)"/></a>
<a xlink:title="disorder"><rect fill="url(#hatch)" x="71.259542" y="59" width="49.440204" height="14"/></a>
<g transform="translate(23.524173,54)"><a xlink:href="http://pfam.xfam.org/family/PF08563" xlink:title="P53 transactivation motif"><rect fill="#2dcf00" x="0" y="0" width="40.916031" height="24" filter="url(#ds)"/><text text-anchor="middle" x="20.458015" y="16">..TAD</text></a></g>
<g transform="translate(176.959288,54)"><a xlink:href="http://pfam.xfam.org/family/PF00870" xlink:title="P53 DNA-binding domain"><rect fill="#ff5353" x="0" y="0" width="330.737913" height="24" filter="url(#ds)"/><text text-anchor="middle" x="165.368957" y="16">P53 DNA-binding domain</text></a></g>
<g transform="translate(557.137405,54)"><a xlink:href="http://pfam.xfam.org/family/PF07710" xlink:title="P53 tetramerisation motif"><rect fill="#5b5bff" x="0" y="0" width="69.898219" height="24" filter="url(#ds)"/><text text-anchor="middle" x="34.949109" y="16">..tetramer</text></a></g>
<g class="axis">
<line x1="15" x2="685" y1="88" y2="88" stroke="#AAAAAA" /><line x1="15" x2="15" y1="88" y2="93" stroke="#AAAAAA" /><line x1="23.524173" x2="23.524173" y1="88" y2="93" stroke="#AAAAAA" /><text text-anchor="middle" x="23.524173" y="103">5</text><line x1="64.440204" x2="64.440204" y1="88" y2="93" stroke="#AAAAAA" /><text text-anchor="middle" x="64.440204" y="103">29</text><line x1="122.404580" x2="122.404580" y1="88" y2="93" stroke="#AAAAAA" /><text text-anchor="middle" x="122.404580" y="103">63</text><line x1="176.959288" x2="176.959288" y1="88" y2="93" stroke="#AAAAAA" /><text text-anchor="middle" x="176.959288" y="103">95</text><line x1="437.798982" x2="437.798982" y1="88" y2="93" stroke="#AAAAAA" /><text text-anchor="middle" x="437.798982" y="103">248</text><line x1="480.419847" x2="480.419847" y1="88" y2="93" stroke="#AAAAAA" /><text text-anchor="middle" x="480.419847" y="103">273</text><line x1="507.697201" x2="507.697201" y1="88" y2="93" stroke="#AAAAAA" /><text text-anchor="middle" x="507.697201" y="103">289</text><line x1="557.137405" x2="557.137405" y1="88" y2="93" stroke="#AAAAAA" /><text text-anchor="middle" x="557.137405" y="103">318</text><line x1="627.035623" x2="627.035623" y1="88" y2="93" stroke="#AAAAAA" /><text text-anchor="middle" x="627.035623" y="103">359</text><line x1="685.000000" x2="685.000000" y1="88" y2="93" stroke="#AAAAAA" /><text text-anchor="middle" x="685.000000" y="103">393</text></g>
</svg>
